<?xml version="1.0" standalone="no"?>
<!DOCTYPE svg PUBLIC "-//W3C//DTD SVG 20010904//EN"
 "http://www.w3.org/TR/2001/REC-SVG-20010904/DTD/svg10.dtd">
<svg version="1.0" xmlns="http://www.w3.org/2000/svg"
 width="999.000000pt" height="999.000000pt" viewBox="0 0 999.000000 999.000000"
 preserveAspectRatio="xMidYMid meet">
<metadata>
Created by potrace 1.11, written by Peter Selinger 2001-2013
</metadata>
<g transform="translate(0.000000,999.000000) scale(0.100000,-0.100000)"
fill="#000000" stroke="none">
<path d="M268 5525 c-176 -48 -276 -207 -266 -419 10 -190 98 -318 249 -360
112 -32 275 -13 367 44 31 19 32 21 32 91 0 39 -3 69 -7 67 -139 -71 -208 -87
-290 -68 -45 10 -65 21 -102 59 -57 56 -71 100 -71 214 0 185 94 295 232 272
62 -11 88 -40 95 -107 l6 -58 68 0 69 0 0 110 0 109 -30 16 c-81 42 -256 57
-352 30z"/>
<path d="M4820 5533 c-51 -20 -69 -93 -31 -127 66 -59 181 -25 181 55 0 45
-30 71 -86 75 -27 2 -56 1 -64 -3z"/>
<path d="M9815 5533 c-22 -2 -59 -6 -82 -9 l-43 -5 0 -45 c0 -39 2 -44 23 -44
38 0 47 -19 47 -96 l0 -73 -42 24 c-78 44 -187 26 -250 -41 -45 -48 -71 -120
-76 -210 -6 -111 16 -184 71 -240 74 -73 195 -79 264 -12 l33 32 6 -33 7 -34
60 7 c33 3 82 6 108 6 l49 0 0 50 c0 49 -1 50 -30 50 l-30 0 0 340 0 340 -37
-2 c-21 -1 -56 -3 -78 -5z m-93 -372 l33 -29 0 -101 c0 -97 -1 -101 -29 -130
-47 -49 -111 -40 -142 21 -19 36 -22 157 -6 200 28 70 90 87 144 39z"/>
<path d="M7387 5513 c-4 -3 -7 -26 -7 -50 0 -37 3 -43 21 -43 11 0 29 -5 40
-10 18 -10 19 -24 19 -273 0 -283 -1 -287 -53 -287 -27 0 -28 -1 -25 -47 l3
-48 168 -3 167 -2 0 50 c0 50 0 50 -33 50 -51 0 -57 13 -57 127 l0 103 65 0
65 0 0 -30 0 -30 60 0 60 0 0 125 0 125 -60 0 -60 0 0 -30 0 -30 -65 0 -65 0
0 90 0 91 108 -3 107 -3 3 -38 3 -38 62 3 62 3 3 103 3 102 -294 0 c-162 0
-297 -3 -300 -7z"/>
<path d="M5195 5433 c-12 -61 -49 -118 -93 -141 -42 -24 -43 -25 -40 -71 3
-44 4 -46 36 -49 l32 -3 1 -157 c0 -173 9 -214 51 -245 37 -28 121 -33 192
-13 l56 17 0 60 c0 54 -2 60 -17 54 -10 -4 -32 -9 -49 -12 -53 -9 -64 19 -64
169 l0 128 65 0 65 0 0 60 0 60 -65 0 -65 0 0 85 0 85 -50 0 c-46 0 -50 -2
-55 -27z"/>
<path d="M940 5301 c-76 -23 -127 -69 -162 -146 -19 -41 -23 -67 -23 -145 0
-87 3 -100 30 -149 17 -30 47 -67 68 -82 48 -35 134 -53 207 -45 155 18 244
131 244 307 -1 129 -57 216 -163 254 -45 16 -158 19 -201 6z m155 -134 c27
-27 34 -44 40 -90 12 -98 -12 -194 -54 -217 -28 -15 -83 -12 -107 5 -36 24
-54 77 -54 154 0 82 16 129 55 159 41 32 81 28 120 -11z"/>
<path d="M1704 5299 c-18 -5 -46 -22 -63 -38 l-31 -29 -6 34 c-6 33 -6 33 -53
28 -25 -3 -75 -8 -111 -12 l-65 -7 0 -45 c0 -43 1 -45 33 -48 l32 -3 0 -165 0
-164 -30 0 c-29 0 -30 -1 -30 -50 l0 -50 140 0 140 0 0 50 c0 47 -2 50 -25 50
l-25 0 0 120 c0 129 12 180 48 199 32 17 70 13 92 -9 18 -18 20 -33 20 -165
l0 -145 -25 0 c-23 0 -25 -3 -25 -50 l0 -50 135 0 135 0 0 50 c0 47 -2 50 -25
50 l-25 0 0 120 c0 129 12 180 48 199 35 19 69 13 91 -15 19 -24 21 -40 21
-165 l0 -139 -25 0 c-23 0 -25 -3 -25 -50 l0 -51 143 3 142 3 0 45 c0 42 -2
45 -27 48 -36 4 -37 11 -40 204 -3 179 -9 195 -88 236 -75 38 -161 24 -221
-37 l-36 -36 -16 28 c-31 53 -125 79 -203 56z"/>
<path d="M2717 5300 c-16 -5 -43 -20 -62 -34 -42 -33 -45 -32 -45 4 0 29 0 29
-47 24 -27 -3 -77 -8 -113 -12 l-65 -7 0 -45 c0 -43 1 -45 33 -48 l32 -3 0
-165 0 -164 -30 0 c-29 0 -30 -1 -30 -50 l0 -50 140 0 140 0 0 50 c0 47 -2 50
-25 50 l-25 0 0 128 c0 109 3 132 20 159 32 53 111 57 130 7 6 -14 10 -86 10
-160 l0 -134 -25 0 c-23 0 -25 -3 -25 -50 l0 -50 135 0 135 0 0 50 c0 47 -2
50 -25 50 l-25 0 0 125 c0 93 4 134 15 155 29 56 90 67 124 24 19 -24 21 -40
21 -165 l0 -139 -25 0 c-23 0 -25 -3 -25 -50 l0 -50 140 0 140 0 0 49 c0 47
-2 50 -27 53 l-28 3 -5 177 c-6 201 -10 215 -90 256 -75 38 -161 24 -221 -37
l-37 -37 -17 29 c-31 53 -124 79 -198 57z"/>
<path d="M4384 5300 c-18 -6 -46 -23 -63 -39 l-31 -29 -6 33 -6 32 -71 -5
c-40 -2 -90 -7 -112 -11 -39 -6 -40 -8 -43 -48 -3 -41 -2 -42 30 -45 l33 -3 3
-167 2 -167 -27 -3 c-26 -3 -28 -7 -31 -50 l-3 -48 140 0 141 0 0 50 c0 47 -2
50 -25 50 l-25 0 0 123 c0 96 4 129 18 157 29 59 106 67 130 15 7 -16 12 -79
12 -160 l0 -135 -25 0 c-23 0 -25 -3 -25 -50 l0 -51 143 3 142 3 0 45 c0 42
-2 45 -27 48 l-28 3 -1 127 c-1 207 -13 255 -80 304 -30 22 -120 32 -165 18z"/>
<path d="M9004 5291 c-23 -10 -48 -29 -57 -41 l-16 -23 -9 34 c-10 38 -1 37
-154 24 l-78 -7 0 -43 c0 -42 1 -44 33 -47 l32 -3 3 -167 2 -167 -27 -3 c-26
-3 -28 -7 -31 -50 l-3 -48 140 0 141 0 0 50 c0 47 -2 50 -25 50 l-25 0 0 125
c0 93 4 134 15 155 29 56 90 67 124 24 19 -24 21 -40 21 -165 l0 -139 -25 0
c-23 0 -25 -3 -25 -50 l0 -51 143 3 142 3 0 45 c0 42 -2 45 -27 48 -16 2 -29
4 -29 5 -1 1 -5 82 -8 179 -6 191 -10 204 -73 251 -38 28 -132 33 -184 8z"/>
<path d="M3500 5293 c-19 -2 -54 -6 -77 -9 l-43 -5 0 -44 c0 -40 2 -44 28 -47
l27 -3 5 -165 c6 -179 14 -210 71 -253 62 -45 182 -37 239 18 l28 27 7 -32 7
-31 101 7 c56 3 105 8 110 11 4 2 7 24 7 49 0 42 -1 44 -30 44 l-30 0 0 221 0
221 -87 -6 c-155 -12 -153 -11 -153 -62 0 -39 3 -44 23 -44 46 0 49 -9 45
-138 -3 -104 -6 -125 -24 -149 -26 -35 -86 -44 -115 -17 -17 16 -19 33 -19
216 l0 198 -42 -2 c-24 0 -59 -3 -78 -5z"/>
<path d="M4850 5293 c-19 -2 -54 -6 -77 -9 l-43 -5 0 -44 c0 -42 1 -44 33 -47
l32 -3 3 -167 2 -167 -32 -3 c-32 -3 -33 -5 -36 -51 l-3 -48 148 3 148 3 0 45
c0 42 -2 45 -27 48 l-28 3 0 225 0 224 -42 -2 c-24 0 -59 -3 -78 -5z"/>
<path d="M8130 5293 c-107 -8 -110 -9 -110 -58 0 -40 2 -44 28 -47 l27 -3 6
-165 c3 -91 10 -177 16 -191 14 -33 67 -77 101 -85 15 -3 33 -7 40 -10 31 -9
114 19 147 51 32 30 35 31 35 11 0 -45 10 -48 121 -39 l104 8 3 48 c3 46 3 47
-26 47 -22 0 -31 6 -36 23 -3 12 -6 111 -6 221 l0 198 -77 -6 c-157 -13 -153
-12 -153 -62 0 -40 2 -44 24 -44 42 0 48 -20 45 -144 -4 -97 -7 -119 -25 -143
-26 -35 -86 -44 -115 -17 -17 16 -19 33 -19 216 l0 198 -42 -2 c-24 -1 -63 -3
-88 -5z"/>
<path d="M5470 5245 c0 -31 4 -45 13 -45 8 0 21 -8 30 -18 18 -19 197 -415
197 -434 0 -7 -11 -36 -24 -65 -33 -69 -78 -84 -88 -28 -2 16 -12 21 -51 23
l-47 3 0 -75 c0 -88 7 -95 100 -103 77 -7 138 20 176 77 15 23 84 169 153 323
96 214 131 284 149 292 18 8 22 18 22 52 l0 43 -125 0 -125 0 0 -45 c0 -34 4
-45 15 -45 30 0 27 -31 -15 -136 l-43 -106 -44 108 c-24 60 -41 114 -38 121 2
7 14 13 25 13 17 0 20 6 20 45 l0 45 -150 0 -150 0 0 -45z"/>
<path d="M6464 5005 l-27 -36 18 -39 c21 -47 84 -115 95 -103 4 4 15 29 25 55
l18 48 -42 55 c-23 30 -46 55 -51 55 -5 0 -21 -16 -36 -35z"/>
<path d="M6353 4720 l-21 -57 65 -38 c35 -21 65 -36 67 -34 18 26 43 79 36 79
-5 0 -35 24 -67 54 l-59 54 -21 -58z"/>
</g>
</svg>
