<?xml version="1.0" encoding="utf-8"?>
<!-- Generator: Adobe Illustrator 21.0.2, SVG Export Plug-In . SVG Version: 6.00 Build 0)  -->
<svg version="1.1" xmlns="http://www.w3.org/2000/svg" xmlns:xlink="http://www.w3.org/1999/xlink" x="0px" y="0px"
	 viewBox="0 0 999 109.2" style="enable-background:new 0 0 999 109.2;" xml:space="preserve">
<style type="text/css">
	.st0{fill:#C8514E;}
	.st1{fill:none;stroke:#C8514E;stroke-width:12.4549;stroke-miterlimit:10;}
	.st2{fill:#FFFFFF;}
	.st3{fill:none;stroke:#C8514E;stroke-width:12;stroke-miterlimit:10;}
	.st4{fill:none;stroke:#C8514E;stroke-width:20;stroke-miterlimit:10;}
	.st5{opacity:0.35;fill:url(#SVGID_1_);}
	.st6{opacity:0.35;fill:url(#SVGID_2_);}
	.st7{opacity:0.35;fill:url(#SVGID_3_);}
	.st8{opacity:0.35;fill:url(#SVGID_4_);}
	.st9{opacity:0.35;fill:url(#SVGID_5_);}
	.st10{opacity:0.35;fill:url(#SVGID_6_);}
	.st11{fill:#010101;}
	.st12{fill:#2E3192;}
	.st13{fill:none;stroke:#2E3192;stroke-width:10;stroke-miterlimit:10;}
	.st14{fill:none;stroke:#2E3192;stroke-width:20;stroke-linecap:round;stroke-miterlimit:10;}
	.st15{fill:none;stroke:#8DC63F;stroke-width:15.8756;stroke-linecap:round;stroke-linejoin:round;stroke-miterlimit:10;}
	.st16{fill:none;stroke:#8DC63F;stroke-width:15.8756;stroke-linecap:round;stroke-miterlimit:10;}
	.st17{fill:#414042;}
	.st18{fill:#8DC63F;}
	.st19{opacity:0.35;fill:url(#SVGID_7_);}
	.st20{opacity:0.35;fill:url(#SVGID_8_);}
	.st21{opacity:0.35;fill:url(#SVGID_9_);}
	.st22{opacity:0.35;fill:url(#SVGID_10_);}
	.st23{fill:#58595B;}
	.st24{opacity:0.35;fill:url(#SVGID_11_);}
	.st25{opacity:0.35;fill:url(#SVGID_12_);}
	.st26{opacity:0.35;fill:url(#SVGID_13_);}
	.st27{opacity:0.35;fill:url(#SVGID_14_);}
	.st28{opacity:0.35;fill:url(#SVGID_15_);}
	.st29{opacity:0.35;fill:url(#SVGID_16_);}
	.st30{opacity:0.35;fill:url(#SVGID_17_);}
	.st31{opacity:0.35;fill:url(#SVGID_18_);}
	.st32{opacity:0.35;fill:url(#SVGID_19_);}
	.st33{opacity:0.35;fill:url(#SVGID_20_);}
	.st34{opacity:0.35;fill:url(#SVGID_21_);}
	.st35{opacity:0.35;fill:url(#SVGID_22_);}
	.st36{opacity:0.35;fill:url(#SVGID_23_);}
	.st37{opacity:0.35;fill:url(#SVGID_24_);}
	.st38{fill:#71993F;}
	.st39{opacity:0.35;fill:url(#SVGID_25_);}
	.st40{opacity:0.35;fill:url(#SVGID_26_);}
	.st41{opacity:0.35;fill:url(#SVGID_27_);}
	.st42{opacity:0.35;fill:url(#SVGID_28_);}
	.st43{opacity:0.35;fill:url(#SVGID_29_);}
	.st44{opacity:0.35;fill:url(#SVGID_30_);}
	.st45{opacity:0.35;fill:url(#SVGID_31_);}
	.st46{opacity:0.35;fill:url(#SVGID_32_);}
	.st47{opacity:0.35;fill:url(#SVGID_33_);}
	.st48{opacity:0.35;fill:url(#SVGID_34_);}
	.st49{opacity:0.35;fill:url(#SVGID_35_);}
	.st50{opacity:0.35;fill:url(#SVGID_36_);}
	.st51{opacity:0.35;fill:url(#SVGID_37_);}
	.st52{opacity:0.35;fill:url(#SVGID_38_);}
	.st53{opacity:0.35;fill:url(#SVGID_39_);}
	.st54{opacity:0.35;fill:url(#SVGID_40_);}
</style>
<g id="Layer_2">
</g>
<g id="Layer_1">
	<g>
		<path class="st2" d="M65.2,6v22.1H50.9v-3.8c0-3.4-0.3-6-0.9-7.7c-0.6-1.8-2.1-3.1-4.4-4.2c-2.3-1-4.7-1.5-7.3-1.5
			c-6.7,0-11.9,2.5-15.5,7.6c-3.6,5.1-5.5,11.8-5.5,20.3c0,9.5,2.2,16.6,6.7,21.2c4.4,4.6,9.9,6.9,16.3,6.9c8.6,0,16.7-2.8,24.5-8.4
			v14.2c-8,5.5-17,8.3-27,8.3c-12.4,0-21.7-3.8-28.1-11.4C3.2,62,0,52.5,0,40.9C0,29,3.4,19.2,10.2,11.5S26.7,0,39.4,0
			C48.8,0,57.4,2,65.2,6z"/>
		<path class="st2" d="M103,22.9c8.7,0,15.4,2.5,20.2,7.4c4.8,4.9,7.2,11.5,7.2,19.8c0,9.2-2.5,16.6-7.4,22.1
			c-4.9,5.6-12,8.3-21.2,8.3c-8.8,0-15.5-2.6-20-7.9C77.3,67.4,75,60.8,75,52.9c0-8.8,2.4-16,7.1-21.6C86.9,25.7,93.9,22.9,103,22.9
			z M102.9,69.4c3.7,0,6.4-1.6,8.3-4.8c1.9-3.2,2.8-7.7,2.8-13.7c0-5.5-1-9.7-2.9-12.7c-1.9-2.9-4.7-4.4-8.3-4.4
			c-3.8,0-6.6,1.7-8.5,5c-1.9,3.4-2.9,7.8-2.9,13.3c0,5,1,9.1,2.9,12.3C96.2,67.8,99.1,69.4,102.9,69.4z"/>
		<path class="st2" d="M137.6,26.5l22-2.1c0.3,1.3,0.6,3.8,1,7.5c4-5.8,9.4-8.7,16.2-8.7c7.9,0,13.1,3.4,15.5,10.2
			c1.8-3.2,4.2-5.7,7.4-7.5c3.2-1.8,6.5-2.7,10.2-2.7c4.6,0,8.6,1.4,12.1,4.1c3.5,2.8,5.2,8.1,5.2,15.9v21.6c0,1.9,0.2,3.2,0.7,3.8
			c0.5,0.6,1.8,0.9,3.9,0.9h1.6v9h-28.4v-9h2.1c1,0,1.8-0.2,2.4-0.6c0.6-0.4,0.9-1.4,0.9-3V47.4c0-4.6-0.6-7.7-1.9-9.2
			c-1.2-1.5-3-2.3-5.2-2.3c-3.2,0-5.6,1.2-7.2,3.7c-1.7,2.5-2.5,5.9-2.5,10.3v15c0,1.9,0.2,3.2,0.5,3.8c0.4,0.6,1.3,0.9,2.9,0.9h2v9
			h-27v-9h1.6c1.8,0,2.8-0.2,3.2-0.8c0.4-0.5,0.6-1.6,0.6-3.3V46.7c0-4.4-0.6-7.4-1.9-8.8c-1.3-1.5-3-2.2-5.3-2.2
			c-2.5,0-4.7,1-6.7,3.1s-2.9,6.1-2.9,12.1v13.5c0,2,0.2,3.3,0.5,4.1c0.4,0.7,1.3,1.1,2.9,1.1h2.1v9h-28v-9h1.6c2.2,0,3.5-0.3,4-0.9
			c0.5-0.6,0.7-1.9,0.7-3.8V39.6c0-1.5-0.2-2.6-0.6-3.3c-0.4-0.7-1.4-1.1-2.9-1.1h-3.3V26.5z"/>
		<path class="st2" d="M238.5,26.5l22-2.1c0.3,1.3,0.6,3.8,1,7.5c4-5.8,9.4-8.7,16.2-8.7c7.9,0,13.1,3.4,15.5,10.2
			c1.8-3.2,4.2-5.7,7.4-7.5c3.2-1.8,6.5-2.7,10.2-2.7c4.6,0,8.6,1.4,12.1,4.1c3.5,2.8,5.2,8.1,5.2,15.9v21.6c0,1.9,0.2,3.2,0.7,3.8
			c0.5,0.6,1.8,0.9,3.9,0.9h1.6v9h-28.4v-9h2.1c1,0,1.8-0.2,2.4-0.6c0.6-0.4,0.9-1.4,0.9-3V47.4c0-4.6-0.6-7.7-1.9-9.2
			c-1.2-1.5-3-2.3-5.2-2.3c-3.2,0-5.6,1.2-7.2,3.7c-1.7,2.5-2.5,5.9-2.5,10.3v15c0,1.9,0.2,3.2,0.5,3.8c0.4,0.6,1.3,0.9,2.9,0.9h2v9
			h-27v-9h1.6c1.8,0,2.8-0.2,3.2-0.8c0.4-0.5,0.6-1.6,0.6-3.3V46.7c0-4.4-0.6-7.4-1.9-8.8c-1.3-1.5-3-2.2-5.3-2.2
			c-2.5,0-4.7,1-6.7,3.1s-2.9,6.1-2.9,12.1v13.5c0,2,0.2,3.3,0.5,4.1c0.4,0.7,1.3,1.1,2.9,1.1h2.1v9h-28v-9h1.6c2.2,0,3.5-0.3,4-0.9
			c0.5-0.6,0.7-1.9,0.7-3.8V39.6c0-1.5-0.2-2.6-0.6-3.3c-0.4-0.7-1.4-1.1-2.9-1.1h-3.3V26.5z"/>
		<path class="st2" d="M337.9,25.9l23.4-2.1V57c0,4.1,0.6,6.9,1.9,8.3c1.3,1.5,3,2.2,5.3,2.2c6.4,0,9.6-4.8,9.6-14.4V40.4
			c0-2.6-0.3-4.2-0.8-4.8c-0.5-0.5-2.6-0.8-6.2-0.8v-8.9l23.1-2.1v39.6c0,1.8,0.2,3,0.5,3.8c0.3,0.7,1.2,1.1,2.4,1.1h3.9v8.8
			l-21.9,1.8c-0.7-2.5-1-5-1-7.7H378c-3.5,6-9,9-16.3,9c-5,0-9.1-1.5-12.4-4.5c-3.3-3-4.9-8.1-4.9-15.3v-19c0-3.4-0.3-5.3-0.8-5.8
			c-0.5-0.5-2.4-0.7-5.7-0.7V25.9z"/>
		<path class="st2" d="M434,69.6v9h-27.7v-9c3,0,4.7-0.3,5.3-0.8c0.5-0.6,0.8-2.4,0.8-5.6V43.7c0-2.5-0.1-4.5-0.2-5.7
			c-0.1-1.3-0.4-2.1-0.9-2.4S410,35,408.8,35c-0.6,0-1.7,0.1-3.2,0.2v-9l21.9-1.8c0.6,2,1,4.6,1,7.7h0.2c3.5-5.9,8.9-8.9,16.1-8.9
			c2.6,0,5,0.4,7.2,1.1s4.1,1.9,5.7,3.5c1.6,1.6,2.8,3.5,3.5,5.8s1.1,6.1,1.1,11.7v17.6c0,3.4,0.2,5.4,0.7,5.9
			c0.5,0.5,2.3,0.8,5.4,0.8v9h-28.5v-9c2.8,0,4.4-0.3,4.8-0.9c0.4-0.6,0.6-2.6,0.6-6.1V48.3c0-5.3-0.6-8.8-1.9-10.3
			c-1.3-1.5-3-2.3-5.4-2.3c-6.3,0-9.5,5-9.5,14.9v12.1c0,3.4,0.2,5.5,0.6,6C429.6,69.3,431.2,69.6,434,69.6z"/>
		<path class="st2" d="M496.3,23.8v39c0,3.4,0.2,5.4,0.7,5.9c0.5,0.5,2.3,0.8,5.4,0.8v9h-29.1v-9h2.7c2,0,3.2-0.4,3.6-1.1
			c0.4-0.7,0.6-2.7,0.6-5.9V43c0-3.7-0.2-5.9-0.5-6.8c-0.3-0.9-1.2-1.4-2.8-1.4c-1,0-2.3,0-4,0.1v-8.9L496.3,23.8z M476.8,8
			c0-2.3,0.8-4.2,2.5-5.7c1.7-1.5,4.2-2.3,7.5-2.3c3.3,0,5.7,0.7,7.4,2.2c1.7,1.5,2.6,3.4,2.6,5.7c0,2.6-0.9,4.6-2.8,6.1
			c-1.9,1.5-4.2,2.2-6.9,2.2c-3,0-5.5-0.7-7.4-2.1C477.7,12.7,476.8,10.7,476.8,8z"/>
		<path class="st2" d="M519.9,7.9h9.9v16.8h12.9v11.4h-12.9v22.2c0,3.5,0.5,5.8,1.4,6.9c0.9,1.1,2.2,1.7,3.9,1.7
			c1.8,0,4.4-0.7,8.1-2.1v11.2c-4.9,2.5-10,3.8-15.4,3.8c-4.5,0-8.1-1.2-10.6-3.6s-3.9-6.6-3.9-12.7V36.1h-6.6v-9.5
			C514.6,24.2,519,17.9,519.9,7.9z"/>
		<path class="st2" d="M546.8,24.7h29.7v9c-3.2,0-4.9,0.7-4.9,2.2c0,0.4,0.4,1.7,1.3,3.9l7.6,18.8l7.3-17.9c0,0,0.2-0.6,0.7-1.6
			c0.4-1,0.7-2,0.7-3.1c0-1.5-1.5-2.3-4.5-2.3v-9h25v9c-1.7,0-2.9,0.3-3.7,1c-0.7,0.7-1.6,2.2-2.6,4.5l-22.1,49.8
			c-2.3,5.1-4.9,8.8-7.9,11.1c-3,2.3-6.8,3.4-11.5,3.4c-3.6,0-7.7-0.9-12.1-2.6V86.3h9.5c0,2.4,0.3,3.9,0.9,4.6c0.6,0.7,1.4,1,2.5,1
			c1.7,0,3.3-1.1,4.6-3.3c1.3-2.2,2.7-5.5,4.2-10l-17.1-38.3c0-0.2-0.5-1.1-1.4-2.7c-0.9-1.6-1.8-2.7-2.6-3.2
			c-0.8-0.5-2-0.7-3.6-0.7V24.7z"/>
		<path class="st2" d="M738.6,2.3h59.1v20h-12.6v-3.4c0-1.8-0.3-3-0.9-3.7c-0.6-0.6-2-1-4.3-1h-17.1v19.1h10.9
			c1.6,0,2.4-0.8,2.4-2.3v-3.6h11.9v24.1h-11.9V48c0-1.2-0.2-2-0.6-2.3c-0.4-0.3-1-0.4-1.8-0.4h-10.9v18.6c0,1.9,0.3,3.2,0.8,3.9
			c0.6,0.7,2.1,1,4.5,1h3.3v9.8h-32.9v-9.8h2.2c2.3,0,3.7-0.3,4.3-1c0.6-0.7,0.9-2.1,0.9-4.3V17.5c0-2.2-0.3-3.7-0.9-4.4
			c-0.6-0.7-2-1-4.2-1h-2.2V2.3z"/>
		<path class="st2" d="M801.9,25.9l23.4-2.1V57c0,4.1,0.6,6.9,1.9,8.3c1.3,1.5,3,2.2,5.3,2.2c6.4,0,9.6-4.8,9.6-14.4V40.4
			c0-2.6-0.3-4.2-0.8-4.8c-0.5-0.5-2.6-0.8-6.2-0.8v-8.9l23.1-2.1v39.6c0,1.8,0.2,3,0.5,3.8c0.3,0.7,1.2,1.1,2.4,1.1h3.9v8.8
			l-21.9,1.8c-0.7-2.5-1-5-1-7.7h-0.2c-3.5,6-9,9-16.3,9c-5,0-9.1-1.5-12.4-4.5c-3.3-3-4.9-8.1-4.9-15.3v-19c0-3.4-0.3-5.3-0.8-5.8
			c-0.5-0.5-2.4-0.7-5.7-0.7V25.9z"/>
		<path class="st2" d="M897.9,69.6v9h-27.7v-9c3,0,4.7-0.3,5.3-0.8c0.5-0.6,0.8-2.4,0.8-5.6V43.7c0-2.5-0.1-4.5-0.2-5.7
			c-0.1-1.3-0.4-2.1-0.9-2.4s-1.3-0.5-2.5-0.5c-0.6,0-1.7,0.1-3.2,0.2v-9l21.9-1.8c0.6,2,1,4.6,1,7.7h0.2c3.5-5.9,8.9-8.9,16.1-8.9
			c2.6,0,5,0.4,7.2,1.1s4.1,1.9,5.7,3.5c1.6,1.6,2.8,3.5,3.5,5.8s1.1,6.1,1.1,11.7v17.6c0,3.4,0.2,5.4,0.7,5.9
			c0.5,0.5,2.3,0.8,5.4,0.8v9h-28.5v-9c2.8,0,4.4-0.3,4.8-0.9c0.4-0.6,0.6-2.6,0.6-6.1V48.3c0-5.3-0.6-8.8-1.9-10.3
			c-1.3-1.5-3-2.3-5.4-2.3c-6.3,0-9.5,5-9.5,14.9v12.1c0,3.4,0.2,5.5,0.6,6C893.5,69.3,895.1,69.6,897.9,69.6z"/>
		<path class="st2" d="M992.3,0v62.8c0,2.3,0.2,3.8,0.7,4.5c0.5,0.7,1.6,1.1,3.3,1.1c0.7,0,1.6-0.1,2.7-0.2v8.9l-21.5,1.5
			c-0.6-2.4-1-4.9-1.1-7.4h-0.2c-3.1,5.9-8.4,8.9-15.7,8.9c-7,0-12.4-2.5-16-7.6c-3.6-5.1-5.5-11.6-5.5-19.4
			c0-8.9,2.2-16.2,6.5-21.8c4.3-5.6,9.9-8.4,16.7-8.4c5.6,0,10.2,1.9,13.8,5.8V17.5c0-2.7-0.2-4.5-0.6-5.4c-0.4-0.9-1.6-1.3-3.5-1.3
			h-3.1V2L992.3,0z M966.3,34.8c-3.2,0-5.7,1.5-7.5,4.4c-1.8,3-2.7,6.9-2.7,12c0,5.2,0.9,9.1,2.6,12c1.7,2.8,4.2,4.2,7.4,4.2
			c3,0,5.5-1.4,7.5-4.1c2-2.8,3-6.9,3-12.4c0-5.3-0.9-9.3-2.8-12C971.9,36.1,969.4,34.8,966.3,34.8z"/>
		<g>
			<g>
				<path class="st18" d="M619.4,109.2c-4.4,0-7.9-3.6-7.9-7.9s3.6-7.9,7.9-7.9c12.4,0,14.9-6.8,19-21c4-13.7,9.5-32.4,34.3-32.4
					c4.4,0,7.9,3.6,7.9,7.9s-3.6,7.9-7.9,7.9c-12.4,0-14.9,6.8-19,21C649.7,90.4,644.2,109.2,619.4,109.2z"/>
			</g>
			<g>
				<path class="st18" d="M672.7,93.5c-11.7,0-23.4-4.4-32.3-13.3c-8.6-8.6-13.4-20.1-13.4-32.3c0-12.2,4.7-23.7,13.4-32.3
					c8.6-8.6,20.1-13.4,32.3-13.4h37.7c4.4,0,7.9,3.6,7.9,7.9v37.7c0,12.2-4.7,23.7-13.4,32.3C696.1,89.1,684.4,93.5,672.7,93.5z
					 M672.7,18.1c-8,0-15.4,3.1-21,8.7c-11.6,11.6-11.6,30.5,0,42.1c11.6,11.6,30.5,11.6,42.1,0c5.6-5.6,8.7-13.1,8.7-21.1l0,0V18.1
					H672.7z"/>
			</g>
			<linearGradient id="SVGID_1_" gradientUnits="userSpaceOnUse" x1="644.1636" y1="81.8147" x2="638.2886" y2="91.8147">
				<stop  offset="0" style="stop-color:#000000"/>
				<stop  offset="1" style="stop-color:#000000;stop-opacity:0"/>
			</linearGradient>
			<path class="st5" d="M637.2,76.5c-1.7,5.4-3.3,9.5-5.8,12.3c3.7,3.8,8,7,12.6,9.7c2.7-3.3,4.6-7.1,6.1-10.9
				c-3.5-2-6.7-4.4-9.7-7.4C639.3,79,638.2,77.8,637.2,76.5z"/>
			<linearGradient id="SVGID_2_" gradientUnits="userSpaceOnUse" x1="647.4001" y1="63.9827" x2="657.2335" y2="56.4827">
				<stop  offset="0" style="stop-color:#000000"/>
				<stop  offset="1" style="stop-color:#000000;stop-opacity:0"/>
			</linearGradient>
			<path class="st6" d="M655.9,47.9c0-1.5,0.2-2.9,0.6-4.2c-5.7,3.1-9.4,7.8-12.1,12.9c1.4,4.5,3.8,8.8,7.4,12.4
				c1.1,1.1,2.3,2.1,3.5,3c1.7-5.3,3.3-9.3,5.8-11.9C657.8,56.9,655.9,52.6,655.9,47.9z"/>
		</g>
	</g>
</g>
</svg>
