<?xml version="1.0" encoding="utf-8"?>
<!-- Generator: Adobe Illustrator 21.0.2, SVG Export Plug-In . SVG Version: 6.00 Build 0)  -->
<svg version="1.1" xmlns="http://www.w3.org/2000/svg" xmlns:xlink="http://www.w3.org/1999/xlink" x="0px" y="0px"
	 viewBox="0 0 643.5 179.2" style="enable-background:new 0 0 643.5 179.2;" xml:space="preserve">
<style type="text/css">
	.st0{fill:#C8514E;}
	.st1{fill:none;stroke:#C8514E;stroke-width:12.4549;stroke-miterlimit:10;}
	.st2{fill:#FFFFFF;}
	.st3{fill:none;stroke:#C8514E;stroke-width:12;stroke-miterlimit:10;}
	.st4{fill:none;stroke:#C8514E;stroke-width:20;stroke-miterlimit:10;}
	.st5{opacity:0.35;fill:url(#SVGID_1_);}
	.st6{opacity:0.35;fill:url(#SVGID_2_);}
	.st7{opacity:0.35;fill:url(#SVGID_3_);}
	.st8{opacity:0.35;fill:url(#SVGID_4_);}
	.st9{opacity:0.35;fill:url(#SVGID_5_);}
	.st10{opacity:0.35;fill:url(#SVGID_6_);}
	.st11{fill:#010101;}
	.st12{fill:#2E3192;}
	.st13{fill:none;stroke:#2E3192;stroke-width:10;stroke-miterlimit:10;}
	.st14{fill:none;stroke:#2E3192;stroke-width:20;stroke-linecap:round;stroke-miterlimit:10;}
	.st15{fill:none;stroke:#8DC63F;stroke-width:15.8756;stroke-linecap:round;stroke-linejoin:round;stroke-miterlimit:10;}
	.st16{fill:none;stroke:#8DC63F;stroke-width:15.8756;stroke-linecap:round;stroke-miterlimit:10;}
	.st17{fill:#414042;}
	.st18{fill:#8DC63F;}
	.st19{opacity:0.35;fill:url(#SVGID_7_);}
	.st20{opacity:0.35;fill:url(#SVGID_8_);}
	.st21{opacity:0.35;fill:url(#SVGID_9_);}
	.st22{opacity:0.35;fill:url(#SVGID_10_);}
	.st23{fill:#58595B;}
	.st24{opacity:0.35;fill:url(#SVGID_11_);}
	.st25{opacity:0.35;fill:url(#SVGID_12_);}
	.st26{opacity:0.35;fill:url(#SVGID_13_);}
	.st27{opacity:0.35;fill:url(#SVGID_14_);}
	.st28{opacity:0.35;fill:url(#SVGID_15_);}
	.st29{opacity:0.35;fill:url(#SVGID_16_);}
	.st30{opacity:0.35;fill:url(#SVGID_17_);}
	.st31{opacity:0.35;fill:url(#SVGID_18_);}
	.st32{opacity:0.35;fill:url(#SVGID_19_);}
	.st33{opacity:0.35;fill:url(#SVGID_20_);}
	.st34{opacity:0.35;fill:url(#SVGID_21_);}
	.st35{opacity:0.35;fill:url(#SVGID_22_);}
	.st36{opacity:0.35;fill:url(#SVGID_23_);}
	.st37{opacity:0.35;fill:url(#SVGID_24_);}
	.st38{fill:#71993F;}
	.st39{opacity:0.35;fill:url(#SVGID_25_);}
	.st40{opacity:0.35;fill:url(#SVGID_26_);}
	.st41{opacity:0.35;fill:url(#SVGID_27_);}
	.st42{opacity:0.35;fill:url(#SVGID_28_);}
	.st43{opacity:0.35;fill:url(#SVGID_29_);}
	.st44{opacity:0.35;fill:url(#SVGID_30_);}
	.st45{opacity:0.35;fill:url(#SVGID_31_);}
	.st46{opacity:0.35;fill:url(#SVGID_32_);}
	.st47{opacity:0.35;fill:url(#SVGID_33_);}
	.st48{opacity:0.35;fill:url(#SVGID_34_);}
	.st49{opacity:0.35;fill:url(#SVGID_35_);}
	.st50{opacity:0.35;fill:url(#SVGID_36_);}
	.st51{opacity:0.35;fill:url(#SVGID_37_);}
	.st52{opacity:0.35;fill:url(#SVGID_38_);}
	.st53{opacity:0.35;fill:url(#SVGID_39_);}
	.st54{opacity:0.35;fill:url(#SVGID_40_);}
</style>
<g id="Layer_2">
</g>
<g id="Layer_1">
	<g>
		<path class="st2" d="M247.5,4.4v16.1h-10.4v-2.7c0-2.5-0.2-4.3-0.7-5.6c-0.5-1.3-1.5-2.3-3.2-3c-1.7-0.7-3.4-1.1-5.3-1.1
			c-4.9,0-8.7,1.8-11.3,5.5c-2.6,3.7-4,8.6-4,14.7c0,6.9,1.6,12.1,4.8,15.4c3.2,3.3,7.2,5,11.9,5c6.2,0,12.2-2,17.8-6.1v10.3
			c-5.8,4-12.4,6-19.6,6c-9,0-15.8-2.8-20.5-8.3c-4.7-5.5-7-12.5-7-20.8c0-8.7,2.5-15.8,7.4-21.4s12-8.4,21.2-8.4
			C235.6,0,241.8,1.5,247.5,4.4z"/>
		<path class="st2" d="M275,16.6c6.3,0,11.2,1.8,14.7,5.4c3.5,3.6,5.2,8.4,5.2,14.4c0,6.7-1.8,12.1-5.4,16.1
			c-3.6,4-8.7,6.1-15.4,6.1c-6.4,0-11.3-1.9-14.6-5.7c-3.3-3.8-4.9-8.6-4.9-14.4c0-6.4,1.7-11.6,5.2-15.7
			C263.3,18.7,268.4,16.6,275,16.6z M274.9,50.5c2.7,0,4.7-1.2,6-3.5s2.1-5.6,2.1-9.9c0-4-0.7-7.1-2.1-9.2c-1.4-2.1-3.4-3.2-6.1-3.2
			c-2.7,0-4.8,1.2-6.2,3.7c-1.4,2.4-2.1,5.7-2.1,9.7c0,3.6,0.7,6.6,2.1,9C270.1,49.3,272.2,50.5,274.9,50.5z"/>
		<path class="st2" d="M300.2,19.3l16-1.5c0.2,1,0.4,2.8,0.7,5.5c2.9-4.2,6.8-6.3,11.8-6.3c5.8,0,9.5,2.5,11.3,7.4
			c1.3-2.3,3.1-4.2,5.4-5.5c2.3-1.3,4.8-2,7.4-2c3.3,0,6.3,1,8.8,3c2.5,2,3.8,5.9,3.8,11.6v15.7c0,1.4,0.2,2.3,0.5,2.8
			c0.4,0.5,1.3,0.7,2.8,0.7h1.1v6.6h-20.7v-6.6h1.5c0.7,0,1.3-0.1,1.8-0.4c0.5-0.3,0.7-1,0.7-2.2V34.5c0-3.4-0.5-5.6-1.4-6.7
			c-0.9-1.1-2.2-1.7-3.8-1.7c-2.3,0-4,0.9-5.3,2.7c-1.2,1.8-1.8,4.3-1.8,7.5v10.9c0,1.4,0.1,2.3,0.4,2.8c0.3,0.4,1,0.7,2.1,0.7h1.4
			v6.6h-19.6v-6.6h1.1c1.3,0,2.1-0.2,2.4-0.5c0.3-0.4,0.4-1.2,0.4-2.4V34c0-3.2-0.5-5.4-1.4-6.4c-0.9-1.1-2.2-1.6-3.8-1.6
			c-1.8,0-3.4,0.7-4.8,2.2s-2.1,4.4-2.1,8.8v9.8c0,1.4,0.1,2.4,0.4,2.9c0.3,0.5,1,0.8,2.1,0.8h1.5v6.6h-20.4v-6.6h1.1
			c1.6,0,2.6-0.2,2.9-0.7c0.4-0.5,0.5-1.4,0.5-2.8V28.8c0-1.1-0.1-1.9-0.4-2.4c-0.3-0.5-1-0.8-2.1-0.8h-2.4V19.3z"/>
		<path class="st2" d="M373.5,19.3l16-1.5c0.2,1,0.4,2.8,0.7,5.5c2.9-4.2,6.8-6.3,11.8-6.3c5.8,0,9.5,2.5,11.3,7.4
			c1.3-2.3,3.1-4.2,5.4-5.5c2.3-1.3,4.8-2,7.4-2c3.3,0,6.3,1,8.8,3c2.5,2,3.8,5.9,3.8,11.6v15.7c0,1.4,0.2,2.3,0.5,2.8
			c0.4,0.5,1.3,0.7,2.8,0.7h1.1v6.6h-20.7v-6.6h1.5c0.7,0,1.3-0.1,1.8-0.4c0.5-0.3,0.7-1,0.7-2.2V34.5c0-3.4-0.5-5.6-1.4-6.7
			c-0.9-1.1-2.2-1.7-3.8-1.7c-2.3,0-4,0.9-5.3,2.7c-1.2,1.8-1.8,4.3-1.8,7.5v10.9c0,1.4,0.1,2.3,0.4,2.8c0.3,0.4,1,0.7,2.1,0.7h1.4
			v6.6h-19.6v-6.6h1.1c1.3,0,2.1-0.2,2.4-0.5c0.3-0.4,0.4-1.2,0.4-2.4V34c0-3.2-0.5-5.4-1.4-6.4c-0.9-1.1-2.2-1.6-3.8-1.6
			c-1.8,0-3.4,0.7-4.8,2.2s-2.1,4.4-2.1,8.8v9.8c0,1.4,0.1,2.4,0.4,2.9c0.3,0.5,1,0.8,2.1,0.8h1.5v6.6h-20.4v-6.6h1.1
			c1.6,0,2.6-0.2,2.9-0.7c0.4-0.5,0.5-1.4,0.5-2.8V28.8c0-1.1-0.1-1.9-0.4-2.4c-0.3-0.5-1-0.8-2.1-0.8h-2.4V19.3z"/>
		<path class="st2" d="M445.9,18.9l17-1.5v24.1c0,3,0.5,5,1.4,6.1c0.9,1.1,2.2,1.6,3.8,1.6c4.6,0,7-3.5,7-10.5v-9.2
			c0-1.9-0.2-3.1-0.5-3.5c-0.4-0.4-1.9-0.6-4.5-0.6v-6.5l16.8-1.5v28.8c0,1.3,0.1,2.2,0.4,2.7c0.2,0.5,0.8,0.8,1.8,0.8h2.8v6.4
			l-15.9,1.3c-0.5-1.8-0.7-3.7-0.7-5.6H475c-2.6,4.4-6.5,6.6-11.8,6.6c-3.6,0-6.7-1.1-9-3.3c-2.4-2.2-3.6-5.9-3.6-11.2V30.1
			c0-2.4-0.2-3.8-0.5-4.2c-0.4-0.4-1.7-0.5-4.1-0.5V18.9z"/>
		<path class="st2" d="M515.7,50.6v6.6h-20.1v-6.6c2.2,0,3.4-0.2,3.8-0.6c0.4-0.4,0.6-1.8,0.6-4V31.8c0-1.8-0.1-3.2-0.2-4.2
			c-0.1-0.9-0.3-1.5-0.6-1.8s-0.9-0.4-1.8-0.4c-0.5,0-1.2,0-2.3,0.1V19l15.9-1.3c0.5,1.5,0.7,3.4,0.7,5.6h0.2
			c2.6-4.3,6.4-6.5,11.7-6.5c1.9,0,3.6,0.3,5.2,0.8s3,1.4,4.1,2.6c1.2,1.2,2,2.6,2.6,4.2s0.8,4.5,0.8,8.5v12.8
			c0,2.5,0.2,3.9,0.5,4.3c0.3,0.4,1.6,0.6,3.9,0.6v6.6H520v-6.6c2,0,3.2-0.2,3.5-0.6c0.3-0.4,0.5-1.9,0.5-4.4V35.1
			c0-3.9-0.5-6.4-1.4-7.5c-0.9-1.1-2.2-1.7-3.9-1.7c-4.6,0-6.9,3.6-6.9,10.8v8.8c0,2.5,0.1,4,0.4,4.4
			C512.5,50.4,513.7,50.6,515.7,50.6z"/>
		<path class="st2" d="M561.1,17.3v28.4c0,2.5,0.2,3.9,0.5,4.3c0.3,0.4,1.6,0.6,3.9,0.6v6.6h-21.1v-6.6h2c1.5,0,2.4-0.3,2.6-0.8
			c0.3-0.5,0.4-1.9,0.4-4.3V31.2c0-2.7-0.1-4.3-0.3-5c-0.2-0.7-0.9-1-2.1-1c-0.7,0-1.7,0-2.9,0.1v-6.5L561.1,17.3z M546.9,5.8
			c0-1.7,0.6-3.1,1.8-4.2c1.2-1.1,3-1.7,5.4-1.7c2.4,0,4.2,0.5,5.4,1.6c1.2,1.1,1.9,2.4,1.9,4.2c0,1.9-0.7,3.3-2.1,4.4
			c-1.4,1.1-3.1,1.6-5,1.6c-2.2,0-4-0.5-5.4-1.5C547.5,9.2,546.9,7.7,546.9,5.8z"/>
		<path class="st2" d="M578.2,5.7h7.2V18h9.4v8.3h-9.4v16.2c0,2.5,0.3,4.2,1,5c0.7,0.8,1.6,1.2,2.8,1.2c1.3,0,3.2-0.5,5.9-1.5v8.2
			c-3.5,1.8-7.3,2.7-11.2,2.7c-3.3,0-5.9-0.9-7.7-2.6s-2.8-4.8-2.8-9.3V26.3h-4.8v-6.9C574.3,17.6,577.6,13,578.2,5.7z"/>
		<path class="st2" d="M597.8,18h21.6v6.6c-2.4,0-3.5,0.5-3.5,1.6c0,0.3,0.3,1.3,1,2.8l5.5,13.7l5.3-13c0,0,0.2-0.4,0.5-1.1
			c0.3-0.7,0.5-1.5,0.5-2.2c0-1.1-1.1-1.7-3.3-1.7V18h18.2v6.6c-1.2,0-2.1,0.3-2.7,0.8c-0.5,0.5-1.2,1.6-1.9,3.3l-16.1,36.3
			c-1.6,3.7-3.5,6.4-5.7,8c-2.2,1.7-5,2.5-8.4,2.5c-2.6,0-5.6-0.6-8.8-1.9V62.8h6.9c0,1.7,0.2,2.9,0.7,3.4c0.4,0.5,1,0.7,1.8,0.7
			c1.3,0,2.4-0.8,3.3-2.4c1-1.6,2-4,3.1-7.2l-12.5-27.9c0-0.1-0.3-0.8-1-2c-0.7-1.2-1.3-2-1.9-2.3c-0.6-0.3-1.4-0.5-2.6-0.5V18z"/>
		<path class="st2" d="M199.8,97.7h43v14.5h-9.1v-2.5c0-1.3-0.2-2.2-0.6-2.7c-0.4-0.5-1.5-0.7-3.1-0.7h-12.4v13.9h7.9
			c1.2,0,1.8-0.6,1.8-1.7V116h8.7v17.5h-8.7v-2.6c0-0.9-0.2-1.4-0.5-1.6c-0.3-0.2-0.7-0.3-1.3-0.3h-7.9v13.6c0,1.4,0.2,2.4,0.6,2.9
			c0.4,0.5,1.5,0.7,3.3,0.7h2.4v7.1h-23.9v-7.1h1.6c1.6,0,2.7-0.2,3.1-0.7c0.4-0.5,0.6-1.5,0.6-3.1v-33.5c0-1.6-0.2-2.7-0.7-3.2
			c-0.4-0.5-1.5-0.7-3.1-0.7h-1.6V97.7z"/>
		<path class="st2" d="M245.8,114.9l17-1.5v24.1c0,3,0.5,5,1.4,6.1c0.9,1.1,2.2,1.6,3.8,1.6c4.6,0,7-3.5,7-10.5v-9.2
			c0-1.9-0.2-3.1-0.5-3.5c-0.4-0.4-1.9-0.6-4.5-0.6v-6.5l16.8-1.5v28.8c0,1.3,0.1,2.2,0.4,2.7c0.2,0.5,0.8,0.8,1.8,0.8h2.8v6.4
			l-15.9,1.3c-0.5-1.8-0.7-3.7-0.7-5.6h-0.2c-2.6,4.4-6.5,6.6-11.8,6.6c-3.6,0-6.7-1.1-9-3.3c-2.4-2.2-3.6-5.9-3.6-11.2v-13.8
			c0-2.4-0.2-3.8-0.5-4.2c-0.4-0.4-1.7-0.5-4.1-0.5V114.9z"/>
		<path class="st2" d="M315.6,146.6v6.6h-20.1v-6.6c2.2,0,3.4-0.2,3.8-0.6c0.4-0.4,0.6-1.8,0.6-4v-14.2c0-1.8-0.1-3.2-0.2-4.2
			c-0.1-0.9-0.3-1.5-0.6-1.8s-0.9-0.4-1.8-0.4c-0.5,0-1.2,0-2.3,0.1V115l15.9-1.3c0.5,1.5,0.7,3.4,0.7,5.6h0.2
			c2.6-4.3,6.4-6.5,11.7-6.5c1.9,0,3.6,0.3,5.2,0.8s3,1.4,4.1,2.6c1.2,1.2,2,2.6,2.6,4.2s0.8,4.5,0.8,8.5v12.8
			c0,2.5,0.2,3.9,0.5,4.3c0.3,0.4,1.6,0.6,3.9,0.6v6.6h-20.7v-6.6c2,0,3.2-0.2,3.5-0.6c0.3-0.4,0.5-1.9,0.5-4.4v-10.5
			c0-3.9-0.5-6.4-1.4-7.5c-0.9-1.1-2.2-1.7-3.9-1.7c-4.6,0-6.9,3.6-6.9,10.8v8.8c0,2.5,0.1,4,0.4,4.4
			C312.4,146.4,313.6,146.6,315.6,146.6z"/>
		<path class="st2" d="M384.3,96v45.7c0,1.7,0.2,2.8,0.5,3.3c0.3,0.5,1.1,0.8,2.4,0.8c0.5,0,1.1,0,2-0.1v6.5l-15.6,1.1
			c-0.5-1.8-0.7-3.6-0.8-5.4h-0.2c-2.3,4.3-6.1,6.5-11.4,6.5c-5.1,0-9-1.8-11.7-5.5c-2.7-3.7-4-8.4-4-14.1c0-6.5,1.6-11.8,4.7-15.9
			c3.1-4.1,7.2-6.1,12.1-6.1c4.1,0,7.4,1.4,10.1,4.2v-8.2c0-2-0.2-3.3-0.4-3.9c-0.3-0.6-1.1-1-2.5-1h-2.2v-6.4L384.3,96z
			 M365.4,121.3c-2.3,0-4.1,1.1-5.4,3.2c-1.3,2.1-1.9,5-1.9,8.7c0,3.8,0.6,6.6,1.9,8.7c1.2,2,3.1,3.1,5.4,3.1c2.2,0,4-1,5.4-3
			c1.5-2,2.2-5,2.2-9c0-3.9-0.7-6.8-2.1-8.7C369.5,122.3,367.7,121.3,365.4,121.3z"/>
		<g>
			<g>
				<path class="st18" d="M12.7,179.2c-7,0-12.7-5.7-12.7-12.7s5.7-12.7,12.7-12.7c19.8,0,23.9-10.9,30.6-33.6
					c6.4-21.9,15.2-52,55-52c7,0,12.7,5.7,12.7,12.7c0,7-5.7,12.7-12.7,12.7c-19.8,0-23.9,10.9-30.6,33.6
					C61.4,149.2,52.6,179.2,12.7,179.2z"/>
			</g>
			<g>
				<path class="st18" d="M98.4,154.1c-18.8,0-37.5-7.1-51.8-21.4c-13.8-13.8-21.5-32.2-21.5-51.8c0-19.6,7.6-38,21.5-51.8
					C60.4,15.2,78.8,7.6,98.4,7.6h60.5c7,0,12.7,5.7,12.7,12.7v60.5c0,19.6-7.6,38-21.5,51.8C135.9,147,117.1,154.1,98.4,154.1z
					 M98.4,33.1c-12.8,0-24.8,5-33.8,14c-18.6,18.6-18.6,49,0,67.6c18.6,18.6,49,18.6,67.6,0c9-9,14-21,14-33.8l0,0V33.1H98.4z"/>
			</g>
			<linearGradient id="SVGID_1_" gradientUnits="userSpaceOnUse" x1="52.701" y1="137.4346" x2="37.945" y2="155.0467">
				<stop  offset="0" style="stop-color:#000000"/>
				<stop  offset="1" style="stop-color:#000000;stop-opacity:0"/>
			</linearGradient>
			<path class="st5" d="M41.3,126.9c-3.4,11-6.7,18.5-12.6,22.7l16,20c8.5-6.5,13.7-15.7,17.4-25c-5.6-3.2-10.8-7.1-15.6-11.9
				C44.7,130.8,42.9,128.9,41.3,126.9z"/>
			<linearGradient id="SVGID_2_" gradientUnits="userSpaceOnUse" x1="57.931" y1="108.5647" x2="73.3217" y2="93.4913">
				<stop  offset="0" style="stop-color:#000000"/>
				<stop  offset="1" style="stop-color:#000000;stop-opacity:0"/>
			</linearGradient>
			<path class="st6" d="M71.3,80.9c0-2.3,0.3-4.6,0.9-6.8C63,79,57,86.5,52.7,94.8c2.2,7.3,6.2,14.1,11.9,19.9
				c1.8,1.8,3.6,3.4,5.6,4.8c2.7-8.5,5.4-14.9,9.4-19.1C74.4,95.4,71.3,88.5,71.3,80.9z"/>
		</g>
	</g>
</g>
</svg>
